<svg width="214" height="64" viewBox="0 0 214 64" fill="none" xmlns="http://www.w3.org/2000/svg">
<line y1="27.7526" x2="193.906" y2="27.7526" stroke="black" stroke-width="1.5"/>
<line x1="20.0937" y1="40.7526" x2="214" y2="40.7526" stroke="black" stroke-width="1.5"/>
<line x1="106.5" y1="27" x2="106.5" y2="41" stroke="black"/>
<path d="M62.4743 18.162C62.2103 18.162 61.9883 18.054 61.8083 17.838C61.6403 17.61 61.4543 17.232 61.2503 16.704C61.0703 16.26 60.8963 15.72 60.7283 15.084C60.5603 14.448 60.4103 13.776 60.2783 13.068C60.1463 12.36 60.0443 11.688 59.9723 11.052C59.8883 10.272 59.8103 9.606 59.7383 9.054C59.6663 8.502 59.5883 8.064 59.5043 7.74C59.4203 7.404 59.3123 7.158 59.1803 7.002C59.0603 6.846 58.8923 6.768 58.6763 6.768C58.3523 6.768 57.9863 7.026 57.5783 7.542C57.1823 8.046 56.7863 8.766 56.3903 9.702C55.9943 10.638 55.6223 11.76 55.2743 13.068C54.9263 14.376 54.6443 15.834 54.4283 17.442C54.3923 17.67 54.3263 17.844 54.2303 17.964C54.1463 18.084 54.0143 18.144 53.8343 18.144C53.5583 18.144 53.3423 18.054 53.1863 17.874C53.0423 17.682 52.9703 17.346 52.9703 16.866C52.9703 16.17 53.0363 15.48 53.1683 14.796C53.3123 14.1 53.4803 13.404 53.6723 12.708C53.8643 12.012 54.0383 11.31 54.1943 10.602C54.3503 9.882 54.4463 9.162 54.4823 8.442C54.4943 8.238 54.5423 8.082 54.6263 7.974C54.7103 7.854 54.8423 7.794 55.0223 7.794C55.1903 7.794 55.3523 7.842 55.5083 7.938C55.6643 8.034 55.8083 8.184 55.9403 8.388L55.2743 8.568C55.8263 7.452 56.3723 6.618 56.9123 6.066C57.4643 5.502 58.0643 5.22 58.7123 5.22C59.4083 5.22 59.9303 5.424 60.2783 5.832C60.6263 6.24 60.8843 6.87 61.0523 7.722C61.2323 8.562 61.3883 9.654 61.5203 10.998C61.6403 11.994 61.7843 12.852 61.9523 13.572C62.1203 14.292 62.2883 14.904 62.4563 15.408C62.6243 15.912 62.7683 16.332 62.8883 16.668C63.0083 17.004 63.0683 17.298 63.0683 17.55C63.0683 17.742 63.0143 17.892 62.9063 18C62.8103 18.108 62.6663 18.162 62.4743 18.162ZM52.8443 14.634C52.5803 14.634 52.3823 14.58 52.2503 14.472C52.1303 14.352 52.0703 14.196 52.0703 14.004C52.0703 13.848 52.1183 13.722 52.2143 13.626C52.3103 13.518 52.4723 13.422 52.7003 13.338C53.9963 12.846 55.4843 12.486 57.1643 12.258C58.8443 12.03 60.6563 11.916 62.6003 11.916C63.0203 11.916 63.3023 11.976 63.4463 12.096C63.6023 12.216 63.6803 12.39 63.6803 12.618C63.6803 12.858 63.5663 13.062 63.3383 13.23C63.1103 13.386 62.7743 13.464 62.3303 13.464C60.9503 13.464 59.7923 13.506 58.8563 13.59C57.9203 13.662 57.1343 13.758 56.4983 13.878C55.8743 13.986 55.3523 14.1 54.9323 14.22C54.5123 14.34 54.1403 14.442 53.8163 14.526C53.5043 14.598 53.1803 14.634 52.8443 14.634ZM68.0147 18.162C67.6667 18.162 67.3547 18.042 67.0787 17.802C66.8027 17.55 66.5807 17.208 66.4127 16.776C66.2567 16.332 66.1787 15.816 66.1787 15.228C66.1787 13.932 66.2147 12.678 66.2867 11.466C66.3707 10.242 66.4787 9.006 66.6107 7.758C66.6467 7.41 66.7247 7.164 66.8447 7.02C66.9647 6.864 67.1507 6.786 67.4027 6.786C67.5947 6.786 67.7567 6.882 67.8887 7.074C68.0207 7.254 68.0867 7.476 68.0867 7.74C68.0987 8.304 68.0747 8.922 68.0147 9.594C67.9547 10.266 67.8947 11.034 67.8347 11.898C67.7747 12.75 67.7447 13.746 67.7447 14.886C67.7447 15.39 67.7927 15.81 67.8887 16.146C67.9847 16.47 68.1707 16.764 68.4467 17.028L67.2767 16.74C68.2247 16.74 69.0947 16.56 69.8867 16.2C70.6787 15.84 71.3687 15.354 71.9567 14.742C72.5567 14.118 73.0187 13.41 73.3427 12.618C73.6667 11.826 73.8287 10.98 73.8287 10.08C73.8287 9.408 73.7147 8.826 73.4867 8.334C73.2587 7.842 72.9047 7.464 72.4247 7.2C71.9447 6.936 71.3027 6.804 70.4987 6.804C69.8147 6.804 69.2267 6.852 68.7347 6.948C68.2547 7.032 67.8407 7.134 67.4927 7.254C67.1567 7.374 66.8567 7.482 66.5927 7.578C66.3287 7.662 66.0587 7.704 65.7827 7.704C65.5907 7.704 65.4287 7.668 65.2967 7.596C65.1647 7.524 65.0627 7.428 64.9907 7.308C64.9307 7.188 64.9007 7.056 64.9007 6.912C64.9007 6.78 64.9367 6.654 65.0087 6.534C65.0807 6.414 65.2007 6.324 65.3687 6.264C65.6327 6.18 65.9567 6.078 66.3407 5.958C66.7367 5.838 67.1627 5.724 67.6187 5.616C68.0867 5.508 68.5787 5.418 69.0947 5.346C69.6107 5.274 70.1207 5.238 70.6247 5.238C71.6327 5.238 72.4967 5.436 73.2167 5.832C73.9367 6.228 74.4887 6.786 74.8727 7.506C75.2687 8.226 75.4667 9.066 75.4667 10.026C75.4667 10.926 75.3287 11.784 75.0527 12.6C74.7767 13.416 74.3987 14.16 73.9187 14.832C73.4387 15.504 72.8807 16.092 72.2447 16.596C71.6087 17.088 70.9307 17.472 70.2107 17.748C69.4907 18.024 68.7587 18.162 68.0147 18.162ZM82.6184 18.198C82.4384 18.198 82.2764 18.168 82.1324 18.108C81.9884 18.048 81.8324 17.922 81.6644 17.73C81.4964 17.526 81.2984 17.232 81.0704 16.848C80.6864 16.212 80.3684 15.546 80.1164 14.85C79.8644 14.142 79.6424 13.434 79.4504 12.726C79.2584 12.006 79.0844 11.322 78.9284 10.674C78.7844 10.026 78.6284 9.438 78.4604 8.91C78.2924 8.37 78.1004 7.932 77.8844 7.596C77.6204 7.176 77.4224 6.852 77.2904 6.624C77.1704 6.384 77.1104 6.15 77.1104 5.922C77.1104 5.73 77.1644 5.574 77.2724 5.454C77.3804 5.334 77.5424 5.274 77.7584 5.274C78.0224 5.274 78.2624 5.37 78.4784 5.562C78.6944 5.754 78.9344 6.084 79.1984 6.552C79.4864 7.056 79.7324 7.62 79.9364 8.244C80.1404 8.856 80.3204 9.504 80.4764 10.188C80.6444 10.872 80.8184 11.562 80.9984 12.258C81.1904 12.954 81.4064 13.632 81.6464 14.292C81.8984 14.952 82.2104 15.57 82.5824 16.146L82.0424 16.452C82.5464 14.52 83.1344 12.732 83.8064 11.088C84.4904 9.432 85.3004 7.872 86.2364 6.408C86.4644 6.048 86.6504 5.79 86.7944 5.634C86.9384 5.466 87.0644 5.358 87.1724 5.31C87.2804 5.262 87.3944 5.238 87.5144 5.238C87.7184 5.238 87.8684 5.304 87.9644 5.436C88.0724 5.568 88.1264 5.724 88.1264 5.904C88.1264 6.072 88.1024 6.24 88.0544 6.408C88.0184 6.564 87.9584 6.726 87.8744 6.894C87.8024 7.05 87.7124 7.224 87.6044 7.416C87.0764 8.304 86.6084 9.132 86.2004 9.9C85.8044 10.656 85.4444 11.4 85.1204 12.132C84.8084 12.852 84.5144 13.614 84.2384 14.418C83.9744 15.21 83.7164 16.086 83.4644 17.046C83.3444 17.514 83.2124 17.826 83.0684 17.982C82.9364 18.126 82.7864 18.198 82.6184 18.198ZM95.1069 18.126C94.2789 18.126 93.5409 17.994 92.8929 17.73C92.2449 17.454 91.6989 17.076 91.2549 16.596C90.8229 16.104 90.4929 15.528 90.2649 14.868C90.0369 14.208 89.9229 13.494 89.9229 12.726C89.9229 12.174 89.9769 11.61 90.0849 11.034C90.2049 10.458 90.3609 9.906 90.5529 9.378C90.7569 8.85 90.9789 8.364 91.2189 7.92C91.4349 7.536 91.6689 7.206 91.9209 6.93C92.1729 6.654 92.4609 6.516 92.7849 6.516C92.9529 6.516 93.0909 6.546 93.1989 6.606C93.3069 6.654 93.3669 6.744 93.3789 6.876C93.3909 6.996 93.3369 7.164 93.2169 7.38C92.9169 7.86 92.6409 8.394 92.3889 8.982C92.1369 9.558 91.9329 10.164 91.7769 10.8C91.6329 11.424 91.5549 12.06 91.5429 12.708C91.5429 13.476 91.6869 14.154 91.9749 14.742C92.2629 15.318 92.6709 15.768 93.1989 16.092C93.7389 16.416 94.3569 16.578 95.0529 16.578C95.6769 16.578 96.1869 16.542 96.5829 16.47C96.9909 16.398 97.3149 16.314 97.5549 16.218C97.7949 16.11 97.9929 16.026 98.1489 15.966C98.3049 15.894 98.4429 15.858 98.5629 15.858C98.7669 15.858 98.9109 15.918 98.9949 16.038C99.0909 16.146 99.1389 16.29 99.1389 16.47C99.1389 16.734 98.9889 16.992 98.6889 17.244C98.4009 17.496 97.9569 17.706 97.3569 17.874C96.7689 18.042 96.0189 18.126 95.1069 18.126ZM91.6509 13.086C91.3989 13.146 91.1949 13.146 91.0389 13.086C90.8949 13.014 90.7869 12.912 90.7149 12.78C90.6549 12.636 90.6249 12.492 90.6249 12.348C90.6249 12.144 90.7269 11.964 90.9309 11.808C91.1469 11.64 91.4469 11.526 91.8309 11.466C92.2149 11.394 92.6229 11.328 93.0549 11.268C93.4989 11.208 93.9429 11.154 94.3869 11.106C94.8429 11.058 95.2749 11.016 95.6829 10.98C96.1029 10.944 96.4749 10.926 96.7989 10.926C97.1709 10.926 97.4229 10.98 97.5549 11.088C97.6989 11.196 97.7709 11.34 97.7709 11.52C97.7709 11.844 97.6329 12.078 97.3569 12.222C97.0809 12.354 96.7509 12.432 96.3669 12.456C95.9469 12.492 95.5149 12.534 95.0709 12.582C94.6389 12.618 94.2129 12.666 93.7929 12.726C93.3849 12.774 92.9949 12.834 92.6229 12.906C92.2629 12.966 91.9389 13.026 91.6509 13.086ZM91.1649 7.308C90.8289 7.308 90.5709 7.236 90.3909 7.092C90.2229 6.948 90.1389 6.774 90.1389 6.57C90.1389 6.438 90.1809 6.306 90.2649 6.174C90.3489 6.042 90.4989 5.946 90.7149 5.886C91.4829 5.742 92.3169 5.622 93.2169 5.526C94.1289 5.43 95.0169 5.358 95.8809 5.31C96.7569 5.262 97.5189 5.238 98.1669 5.238C98.4909 5.238 98.7309 5.304 98.8869 5.436C99.0429 5.556 99.1209 5.724 99.1209 5.94C99.1209 6.18 99.0489 6.384 98.9049 6.552C98.7609 6.708 98.5269 6.786 98.2029 6.786C97.1589 6.786 96.2589 6.81 95.5029 6.858C94.7589 6.906 94.1169 6.966 93.5769 7.038C93.0489 7.11 92.5869 7.176 92.1909 7.236C91.8069 7.284 91.4649 7.308 91.1649 7.308ZM102.043 18.18C101.815 18.18 101.629 18.108 101.485 17.964C101.341 17.808 101.269 17.556 101.269 17.208C101.269 16.968 101.299 16.728 101.359 16.488C101.431 16.236 101.509 15.924 101.593 15.552C101.689 15.168 101.767 14.682 101.827 14.094C101.899 13.506 101.935 12.756 101.935 11.844C101.935 11.328 101.917 10.794 101.881 10.242C101.857 9.678 101.827 9.144 101.791 8.64C101.755 8.124 101.719 7.68 101.683 7.308C101.659 6.924 101.647 6.66 101.647 6.516C101.647 6.156 101.731 5.85 101.899 5.598C102.067 5.346 102.313 5.22 102.637 5.22C103.093 5.22 103.519 5.376 103.915 5.688C104.323 5.988 104.701 6.402 105.049 6.93C105.397 7.458 105.727 8.052 106.039 8.712C106.351 9.372 106.651 10.056 106.939 10.764C107.227 11.46 107.509 12.138 107.785 12.798C108.061 13.458 108.337 14.064 108.613 14.616C108.889 15.156 109.171 15.594 109.459 15.93C109.747 16.254 110.053 16.434 110.377 16.47L109.675 16.812C109.855 16.584 109.993 16.344 110.089 16.092C110.197 15.828 110.275 15.516 110.323 15.156C110.371 14.784 110.395 14.322 110.395 13.77C110.395 13.062 110.377 12.378 110.341 11.718C110.317 11.046 110.299 10.392 110.287 9.756C110.275 9.12 110.287 8.508 110.323 7.92C110.359 7.32 110.443 6.738 110.575 6.174C110.647 5.85 110.743 5.622 110.863 5.49C110.995 5.346 111.175 5.274 111.403 5.274C111.619 5.274 111.793 5.346 111.925 5.49C112.057 5.634 112.141 5.814 112.177 6.03C112.225 6.246 112.225 6.474 112.177 6.714C112.057 7.29 111.979 7.854 111.943 8.406C111.907 8.946 111.895 9.492 111.907 10.044C111.919 10.584 111.937 11.154 111.961 11.754C111.985 12.342 111.997 12.972 111.997 13.644C111.997 14.52 111.949 15.306 111.853 16.002C111.769 16.686 111.595 17.226 111.331 17.622C111.067 18.006 110.671 18.198 110.143 18.198C109.651 18.198 109.213 18.048 108.829 17.748C108.457 17.448 108.115 17.04 107.803 16.524C107.491 16.008 107.197 15.426 106.921 14.778C106.645 14.118 106.369 13.434 106.093 12.726C105.829 12.006 105.541 11.298 105.229 10.602C104.929 9.894 104.593 9.24 104.221 8.64C103.861 8.028 103.447 7.512 102.979 7.092L103.249 7.02C103.333 7.704 103.393 8.328 103.429 8.892C103.465 9.456 103.495 9.984 103.519 10.476C103.543 10.956 103.555 11.412 103.555 11.844C103.555 12.972 103.501 13.998 103.393 14.922C103.285 15.846 103.111 16.686 102.871 17.442C102.823 17.658 102.727 17.838 102.583 17.982C102.439 18.114 102.259 18.18 102.043 18.18ZM119.307 18.234C119.055 18.234 118.827 18.108 118.623 17.856C118.419 17.604 118.263 17.124 118.155 16.416C118.095 16.032 118.041 15.564 117.993 15.012C117.957 14.46 117.933 13.812 117.921 13.068C117.909 12.312 117.921 11.448 117.957 10.476C118.005 9.492 118.083 8.364 118.191 7.092C118.215 6.816 118.281 6.6 118.389 6.444C118.509 6.276 118.665 6.192 118.857 6.192C119.229 6.192 119.475 6.348 119.595 6.66C119.727 6.972 119.769 7.524 119.721 8.316C119.637 9.636 119.589 10.776 119.577 11.736C119.565 12.684 119.577 13.488 119.613 14.148C119.649 14.808 119.691 15.36 119.739 15.804C119.799 16.236 119.847 16.584 119.883 16.848C119.931 17.112 119.955 17.334 119.955 17.514C119.955 17.766 119.895 17.946 119.775 18.054C119.655 18.174 119.499 18.234 119.307 18.234ZM121.899 6.948C121.239 6.948 120.633 6.948 120.081 6.948C119.541 6.948 119.031 6.942 118.551 6.93C118.071 6.918 117.585 6.906 117.093 6.894C116.613 6.882 116.091 6.864 115.527 6.84C115.059 6.828 114.699 6.774 114.447 6.678C114.195 6.582 114.021 6.468 113.925 6.336C113.841 6.192 113.799 6.036 113.799 5.868C113.799 5.7 113.859 5.562 113.979 5.454C114.099 5.334 114.297 5.274 114.573 5.274C115.269 5.274 115.887 5.28 116.427 5.292C116.967 5.304 117.471 5.322 117.939 5.346C118.419 5.358 118.899 5.37 119.379 5.382C119.859 5.394 120.381 5.4 120.945 5.4C121.473 5.4 121.881 5.382 122.169 5.346C122.457 5.31 122.703 5.28 122.907 5.256C123.111 5.22 123.333 5.202 123.573 5.202C123.813 5.202 123.987 5.262 124.095 5.382C124.203 5.49 124.257 5.628 124.257 5.796C124.257 6.06 124.143 6.282 123.915 6.462C123.687 6.63 123.393 6.756 123.033 6.84C122.673 6.912 122.295 6.948 121.899 6.948ZM130.925 18.234C129.773 18.234 128.831 17.976 128.099 17.46C127.379 16.932 126.851 16.194 126.515 15.246C126.179 14.298 126.011 13.188 126.011 11.916C126.011 11.424 126.023 10.932 126.047 10.44C126.083 9.948 126.101 9.54 126.101 9.216C126.101 8.664 126.083 8.22 126.047 7.884C126.011 7.548 125.963 7.278 125.903 7.074C125.855 6.858 125.807 6.672 125.759 6.516C125.723 6.348 125.705 6.156 125.705 5.94C125.705 5.664 125.765 5.466 125.885 5.346C126.017 5.226 126.203 5.166 126.443 5.166C126.659 5.166 126.869 5.274 127.073 5.49C127.277 5.706 127.439 6.066 127.559 6.57C127.691 7.062 127.757 7.734 127.757 8.586C127.757 8.91 127.745 9.264 127.721 9.648C127.709 10.02 127.691 10.404 127.667 10.8C127.643 11.196 127.631 11.568 127.631 11.916C127.631 13.104 127.763 14.046 128.027 14.742C128.303 15.426 128.681 15.918 129.161 16.218C129.653 16.506 130.199 16.65 130.799 16.65C131.795 16.65 132.515 16.32 132.959 15.66C133.403 15 133.625 13.95 133.625 12.51C133.625 11.79 133.613 11.148 133.589 10.584C133.577 10.02 133.559 9.468 133.535 8.928C133.511 8.376 133.499 7.758 133.499 7.074C133.499 6.486 133.601 6.024 133.805 5.688C134.009 5.352 134.297 5.184 134.669 5.184C134.885 5.184 135.047 5.232 135.155 5.328C135.275 5.424 135.335 5.598 135.335 5.85C135.335 6.066 135.317 6.288 135.281 6.516C135.257 6.744 135.227 7.032 135.191 7.38C135.155 7.716 135.137 8.178 135.137 8.766C135.137 9.402 135.155 10.038 135.191 10.674C135.227 11.298 135.245 11.952 135.245 12.636C135.245 13.74 135.089 14.712 134.777 15.552C134.477 16.392 134.009 17.052 133.373 17.532C132.737 18 131.921 18.234 130.925 18.234ZM139.057 18.234C138.721 18.234 138.469 18.042 138.301 17.658C138.133 17.274 138.049 16.728 138.049 16.02C138.049 15.396 138.121 14.688 138.265 13.896C138.421 13.104 138.655 12.198 138.967 11.178C138.943 10.782 138.901 10.416 138.841 10.08C138.793 9.732 138.715 9.366 138.607 8.982C138.511 8.598 138.373 8.16 138.193 7.668C138.037 7.272 137.995 6.972 138.067 6.768C138.151 6.564 138.355 6.462 138.679 6.462C139.063 6.462 139.393 6.69 139.669 7.146C139.957 7.602 140.155 8.376 140.263 9.468L139.813 9.576C140.269 8.568 140.785 7.746 141.361 7.11C141.949 6.462 142.585 5.988 143.269 5.688C143.953 5.376 144.667 5.22 145.411 5.22C145.927 5.22 146.377 5.298 146.761 5.454C147.145 5.61 147.457 5.826 147.697 6.102C147.937 6.366 148.111 6.678 148.219 7.038C148.339 7.398 148.399 7.788 148.399 8.208C148.399 8.676 148.303 9.15 148.111 9.63C147.919 10.11 147.589 10.596 147.121 11.088C146.665 11.568 146.041 12.042 145.249 12.51C144.457 12.966 143.461 13.404 142.261 13.824C142.837 14.304 143.593 14.796 144.529 15.3C145.477 15.804 146.527 16.242 147.679 16.614C148.123 16.746 148.417 16.878 148.561 17.01C148.705 17.142 148.777 17.286 148.777 17.442C148.777 17.694 148.693 17.886 148.525 18.018C148.357 18.15 148.093 18.216 147.733 18.216C147.457 18.216 147.073 18.138 146.581 17.982C146.089 17.826 145.549 17.616 144.961 17.352C144.385 17.088 143.803 16.788 143.215 16.452C142.639 16.104 142.105 15.744 141.613 15.372C141.133 15 140.749 14.628 140.461 14.256C140.329 14.064 140.257 13.872 140.245 13.68C140.233 13.488 140.287 13.314 140.407 13.158C140.527 13.002 140.713 12.882 140.965 12.798C142.069 12.426 142.993 12.042 143.737 11.646C144.481 11.25 145.075 10.854 145.519 10.458C145.963 10.062 146.281 9.678 146.473 9.306C146.665 8.934 146.761 8.58 146.761 8.244C146.761 7.836 146.641 7.488 146.401 7.2C146.173 6.912 145.783 6.768 145.231 6.768C144.727 6.768 144.241 6.888 143.773 7.128C143.305 7.368 142.861 7.71 142.441 8.154C142.033 8.598 141.661 9.126 141.325 9.738C140.989 10.35 140.695 11.034 140.443 11.79C140.203 12.534 140.011 13.326 139.867 14.166C139.735 15.006 139.669 15.882 139.669 16.794C139.669 17.19 139.651 17.496 139.615 17.712C139.579 17.916 139.519 18.054 139.435 18.126C139.351 18.198 139.225 18.234 139.057 18.234ZM155.79 18.126C154.686 18.126 153.744 17.892 152.964 17.424C152.196 16.944 151.608 16.302 151.2 15.498C150.804 14.682 150.606 13.758 150.606 12.726C150.606 11.898 150.732 11.058 150.984 10.206C151.236 9.342 151.542 8.58 151.902 7.92C152.118 7.536 152.352 7.206 152.604 6.93C152.856 6.654 153.144 6.516 153.468 6.516C153.636 6.516 153.774 6.546 153.882 6.606C153.99 6.654 154.05 6.744 154.062 6.876C154.074 6.996 154.02 7.164 153.9 7.38C153.6 7.86 153.324 8.394 153.072 8.982C152.82 9.558 152.616 10.164 152.46 10.8C152.316 11.424 152.238 12.06 152.226 12.708C152.226 13.476 152.37 14.154 152.658 14.742C152.946 15.318 153.354 15.768 153.882 16.092C154.422 16.416 155.04 16.578 155.736 16.578C156.36 16.578 156.87 16.542 157.266 16.47C157.674 16.398 157.998 16.314 158.238 16.218C158.478 16.11 158.676 16.026 158.832 15.966C158.988 15.894 159.126 15.858 159.246 15.858C159.45 15.858 159.594 15.918 159.678 16.038C159.774 16.146 159.822 16.29 159.822 16.47C159.822 16.734 159.672 16.992 159.372 17.244C159.084 17.496 158.64 17.706 158.04 17.874C157.452 18.042 156.702 18.126 155.79 18.126ZM152.334 13.086C152.082 13.146 151.878 13.146 151.722 13.086C151.578 13.014 151.47 12.912 151.398 12.78C151.338 12.636 151.308 12.492 151.308 12.348C151.308 12.144 151.41 11.964 151.614 11.808C151.83 11.64 152.13 11.526 152.514 11.466C152.898 11.394 153.306 11.328 153.738 11.268C154.182 11.208 154.626 11.154 155.07 11.106C155.526 11.058 155.958 11.016 156.366 10.98C156.786 10.944 157.158 10.926 157.482 10.926C157.854 10.926 158.106 10.98 158.238 11.088C158.382 11.196 158.454 11.34 158.454 11.52C158.454 11.844 158.316 12.078 158.04 12.222C157.764 12.354 157.434 12.432 157.05 12.456C156.498 12.492 155.928 12.546 155.34 12.618C154.764 12.678 154.212 12.75 153.684 12.834C153.168 12.918 152.718 13.002 152.334 13.086ZM151.848 7.308C151.512 7.308 151.254 7.236 151.074 7.092C150.906 6.948 150.822 6.774 150.822 6.57C150.822 6.438 150.864 6.306 150.948 6.174C151.032 6.042 151.182 5.946 151.398 5.886C152.166 5.742 153 5.622 153.9 5.526C154.812 5.43 155.7 5.358 156.564 5.31C157.44 5.262 158.202 5.238 158.85 5.238C159.174 5.238 159.414 5.304 159.57 5.436C159.726 5.556 159.804 5.724 159.804 5.94C159.804 6.18 159.732 6.384 159.588 6.552C159.444 6.708 159.21 6.786 158.886 6.786C157.842 6.786 156.942 6.81 156.186 6.858C155.442 6.906 154.8 6.966 154.26 7.038C153.732 7.11 153.27 7.176 152.874 7.236C152.49 7.284 152.148 7.308 151.848 7.308Z" fill="black"/>
<path d="M89.565 61.15C89.365 61.15 89.195 61.06 89.055 60.88C88.915 60.7 88.845 60.415 88.845 60.025C88.845 59.375 88.8 58.785 88.71 58.255C88.62 57.725 88.515 57.225 88.395 56.755C88.285 56.285 88.18 55.83 88.08 55.39C87.99 54.94 87.945 54.48 87.945 54.01C87.945 53.29 88.07 52.66 88.32 52.12C88.57 51.57 88.96 51.145 89.49 50.845C90.02 50.535 90.705 50.38 91.545 50.38C92.195 50.38 92.785 50.515 93.315 50.785C93.855 51.055 94.285 51.445 94.605 51.955C94.925 52.455 95.085 53.07 95.085 53.8C95.085 54.28 94.98 54.745 94.77 55.195C94.56 55.645 94.27 56.045 93.9 56.395C93.53 56.745 93.09 57.025 92.58 57.235C92.08 57.435 91.53 57.535 90.93 57.535C90.56 57.535 90.23 57.485 89.94 57.385C89.65 57.285 89.42 57.15 89.25 56.98C89.08 56.81 88.995 56.635 88.995 56.455C88.995 56.305 89.035 56.19 89.115 56.11C89.205 56.03 89.305 55.99 89.415 55.99C89.555 55.99 89.68 56.015 89.79 56.065C89.9 56.105 90.035 56.15 90.195 56.2C90.365 56.24 90.59 56.26 90.87 56.26C91.44 56.26 91.94 56.145 92.37 55.915C92.8 55.685 93.135 55.38 93.375 55C93.625 54.62 93.75 54.22 93.75 53.8C93.75 53.32 93.645 52.925 93.435 52.615C93.235 52.305 92.965 52.075 92.625 51.925C92.285 51.765 91.925 51.685 91.545 51.685C90.785 51.685 90.215 51.885 89.835 52.285C89.465 52.685 89.28 53.26 89.28 54.01C89.28 54.46 89.325 54.91 89.415 55.36C89.505 55.8 89.61 56.265 89.73 56.755C89.85 57.245 89.955 57.79 90.045 58.39C90.135 58.98 90.18 59.655 90.18 60.415C90.18 60.635 90.13 60.815 90.03 60.955C89.94 61.085 89.785 61.15 89.565 61.15ZM100.098 61.135C99.3876 61.135 98.7876 60.985 98.2976 60.685C97.8076 60.385 97.4376 59.945 97.1876 59.365C96.9476 58.785 96.8276 58.075 96.8276 57.235C96.8276 56.455 96.8876 55.73 97.0076 55.06C97.1376 54.39 97.2626 53.745 97.3826 53.125C97.5126 52.495 97.5776 51.86 97.5776 51.22C97.5776 50.94 97.6076 50.725 97.6676 50.575C97.7376 50.425 97.8926 50.35 98.1326 50.35C98.3126 50.35 98.4626 50.395 98.5826 50.485C98.7026 50.575 98.7876 50.705 98.8376 50.875C98.8976 51.045 98.9276 51.25 98.9276 51.49C98.9276 52 98.8876 52.495 98.8076 52.975C98.7376 53.455 98.6476 53.935 98.5376 54.415C98.4376 54.895 98.3476 55.38 98.2676 55.87C98.1976 56.35 98.1626 56.845 98.1626 57.355C98.1626 58.115 98.3126 58.72 98.6126 59.17C98.9226 59.61 99.4376 59.83 100.158 59.83C100.658 59.83 101.073 59.795 101.403 59.725C101.733 59.655 102.003 59.575 102.213 59.485C102.433 59.395 102.618 59.315 102.768 59.245C102.918 59.165 103.058 59.125 103.188 59.125C103.338 59.125 103.453 59.175 103.533 59.275C103.623 59.375 103.668 59.495 103.668 59.635C103.668 59.795 103.628 59.95 103.548 60.1C103.468 60.24 103.348 60.36 103.188 60.46C102.758 60.69 102.278 60.86 101.748 60.97C101.228 61.08 100.678 61.135 100.098 61.135ZM113.064 61.135C112.844 61.135 112.659 61.045 112.509 60.865C112.369 60.675 112.214 60.36 112.044 59.92C111.894 59.55 111.749 59.1 111.609 58.57C111.469 58.04 111.344 57.48 111.234 56.89C111.124 56.3 111.039 55.74 110.979 55.21C110.909 54.56 110.844 54.005 110.784 53.545C110.724 53.085 110.659 52.72 110.589 52.45C110.519 52.17 110.429 51.965 110.319 51.835C110.219 51.705 110.079 51.64 109.899 51.64C109.629 51.64 109.324 51.855 108.984 52.285C108.654 52.705 108.324 53.305 107.994 54.085C107.664 54.865 107.354 55.8 107.064 56.89C106.774 57.98 106.539 59.195 106.359 60.535C106.329 60.725 106.274 60.87 106.194 60.97C106.124 61.07 106.014 61.12 105.864 61.12C105.634 61.12 105.454 61.045 105.324 60.895C105.204 60.735 105.144 60.455 105.144 60.055C105.144 59.475 105.199 58.9 105.309 58.33C105.429 57.75 105.569 57.17 105.729 56.59C105.889 56.01 106.034 55.425 106.164 54.835C106.294 54.235 106.374 53.635 106.404 53.035C106.414 52.865 106.454 52.735 106.524 52.645C106.594 52.545 106.704 52.495 106.854 52.495C106.994 52.495 107.129 52.535 107.259 52.615C107.389 52.695 107.509 52.82 107.619 52.99L107.064 53.14C107.524 52.21 107.979 51.515 108.429 51.055C108.889 50.585 109.389 50.35 109.929 50.35C110.509 50.35 110.944 50.52 111.234 50.86C111.524 51.2 111.739 51.725 111.879 52.435C112.029 53.135 112.159 54.045 112.269 55.165C112.369 55.995 112.489 56.71 112.629 57.31C112.769 57.91 112.909 58.42 113.049 58.84C113.189 59.26 113.309 59.61 113.409 59.89C113.509 60.17 113.559 60.415 113.559 60.625C113.559 60.965 113.394 61.135 113.064 61.135ZM105.039 58.195C104.819 58.195 104.654 58.15 104.544 58.06C104.444 57.96 104.394 57.83 104.394 57.67C104.394 57.54 104.434 57.435 104.514 57.355C104.594 57.265 104.729 57.185 104.919 57.115C105.999 56.705 107.239 56.405 108.639 56.215C110.039 56.025 111.549 55.93 113.169 55.93C113.519 55.93 113.754 55.98 113.874 56.08C114.004 56.18 114.069 56.325 114.069 56.515C114.069 56.715 113.974 56.885 113.784 57.025C113.594 57.155 113.314 57.22 112.944 57.22C111.794 57.22 110.829 57.255 110.049 57.325C109.269 57.385 108.614 57.465 108.084 57.565C107.564 57.655 107.129 57.75 106.779 57.85C106.429 57.95 106.119 58.035 105.849 58.105C105.589 58.165 105.319 58.195 105.039 58.195ZM116.584 61.15C116.394 61.15 116.239 61.09 116.119 60.97C115.999 60.84 115.939 60.63 115.939 60.34C115.939 60.14 115.964 59.94 116.014 59.74C116.074 59.53 116.139 59.27 116.209 58.96C116.289 58.64 116.354 58.235 116.404 57.745C116.464 57.255 116.494 56.63 116.494 55.87C116.494 55.44 116.479 54.995 116.449 54.535C116.429 54.065 116.404 53.62 116.374 53.2C116.344 52.77 116.314 52.4 116.284 52.09C116.264 51.77 116.254 51.55 116.254 51.43C116.254 51.13 116.324 50.875 116.464 50.665C116.604 50.455 116.809 50.35 117.079 50.35C117.459 50.35 117.814 50.48 118.144 50.74C118.484 50.99 118.799 51.335 119.089 51.775C119.379 52.215 119.654 52.71 119.914 53.26C120.174 53.81 120.424 54.38 120.664 54.97C120.904 55.55 121.139 56.115 121.369 56.665C121.599 57.215 121.829 57.72 122.059 58.18C122.289 58.63 122.524 58.995 122.764 59.275C123.004 59.545 123.259 59.695 123.529 59.725L122.944 60.01C123.094 59.82 123.209 59.62 123.289 59.41C123.379 59.19 123.444 58.93 123.484 58.63C123.524 58.32 123.544 57.935 123.544 57.475C123.544 56.885 123.529 56.315 123.499 55.765C123.479 55.205 123.464 54.66 123.454 54.13C123.444 53.6 123.454 53.09 123.484 52.6C123.514 52.1 123.584 51.615 123.694 51.145C123.754 50.875 123.834 50.685 123.934 50.575C124.044 50.455 124.194 50.395 124.384 50.395C124.564 50.395 124.709 50.455 124.819 50.575C124.929 50.695 124.999 50.845 125.029 51.025C125.069 51.205 125.069 51.395 125.029 51.595C124.929 52.075 124.864 52.545 124.834 53.005C124.804 53.455 124.794 53.91 124.804 54.37C124.814 54.82 124.829 55.295 124.849 55.795C124.869 56.285 124.879 56.81 124.879 57.37C124.879 58.1 124.839 58.755 124.759 59.335C124.689 59.905 124.544 60.355 124.324 60.685C124.104 61.005 123.774 61.165 123.334 61.165C122.924 61.165 122.559 61.04 122.239 60.79C121.929 60.54 121.644 60.2 121.384 59.77C121.124 59.34 120.879 58.855 120.649 58.315C120.419 57.765 120.189 57.195 119.959 56.605C119.739 56.005 119.499 55.415 119.239 54.835C118.989 54.245 118.709 53.7 118.399 53.2C118.099 52.69 117.754 52.26 117.364 51.91L117.589 51.85C117.659 52.42 117.709 52.94 117.739 53.41C117.769 53.88 117.794 54.32 117.814 54.73C117.834 55.13 117.844 55.51 117.844 55.87C117.844 56.81 117.799 57.665 117.709 58.435C117.619 59.205 117.474 59.905 117.274 60.535C117.234 60.715 117.154 60.865 117.034 60.985C116.914 61.095 116.764 61.15 116.584 61.15ZM127.984 61.15C127.794 61.15 127.639 61.09 127.519 60.97C127.399 60.84 127.339 60.63 127.339 60.34C127.339 60.14 127.364 59.94 127.414 59.74C127.474 59.53 127.539 59.27 127.609 58.96C127.689 58.64 127.754 58.235 127.804 57.745C127.864 57.255 127.894 56.63 127.894 55.87C127.894 55.44 127.879 54.995 127.849 54.535C127.829 54.065 127.804 53.62 127.774 53.2C127.744 52.77 127.714 52.4 127.684 52.09C127.664 51.77 127.654 51.55 127.654 51.43C127.654 51.13 127.724 50.875 127.864 50.665C128.004 50.455 128.209 50.35 128.479 50.35C128.859 50.35 129.214 50.48 129.544 50.74C129.884 50.99 130.199 51.335 130.489 51.775C130.779 52.215 131.054 52.71 131.314 53.26C131.574 53.81 131.824 54.38 132.064 54.97C132.304 55.55 132.539 56.115 132.769 56.665C132.999 57.215 133.229 57.72 133.459 58.18C133.689 58.63 133.924 58.995 134.164 59.275C134.404 59.545 134.659 59.695 134.929 59.725L134.344 60.01C134.494 59.82 134.609 59.62 134.689 59.41C134.779 59.19 134.844 58.93 134.884 58.63C134.924 58.32 134.944 57.935 134.944 57.475C134.944 56.885 134.929 56.315 134.899 55.765C134.879 55.205 134.864 54.66 134.854 54.13C134.844 53.6 134.854 53.09 134.884 52.6C134.914 52.1 134.984 51.615 135.094 51.145C135.154 50.875 135.234 50.685 135.334 50.575C135.444 50.455 135.594 50.395 135.784 50.395C135.964 50.395 136.109 50.455 136.219 50.575C136.329 50.695 136.399 50.845 136.429 51.025C136.469 51.205 136.469 51.395 136.429 51.595C136.329 52.075 136.264 52.545 136.234 53.005C136.204 53.455 136.194 53.91 136.204 54.37C136.214 54.82 136.229 55.295 136.249 55.795C136.269 56.285 136.279 56.81 136.279 57.37C136.279 58.1 136.239 58.755 136.159 59.335C136.089 59.905 135.944 60.355 135.724 60.685C135.504 61.005 135.174 61.165 134.734 61.165C134.324 61.165 133.959 61.04 133.639 60.79C133.329 60.54 133.044 60.2 132.784 59.77C132.524 59.34 132.279 58.855 132.049 58.315C131.819 57.765 131.589 57.195 131.359 56.605C131.139 56.005 130.899 55.415 130.639 54.835C130.389 54.245 130.109 53.7 129.799 53.2C129.499 52.69 129.154 52.26 128.764 51.91L128.989 51.85C129.059 52.42 129.109 52.94 129.139 53.41C129.169 53.88 129.194 54.32 129.214 54.73C129.234 55.13 129.244 55.51 129.244 55.87C129.244 56.81 129.199 57.665 129.109 58.435C129.019 59.205 128.874 59.905 128.674 60.535C128.634 60.715 128.554 60.865 128.434 60.985C128.314 61.095 128.164 61.15 127.984 61.15ZM143.07 61.105C142.15 61.105 141.365 60.91 140.715 60.52C140.075 60.12 139.585 59.585 139.245 58.915C138.915 58.235 138.75 57.465 138.75 56.605C138.75 55.915 138.855 55.215 139.065 54.505C139.275 53.785 139.53 53.15 139.83 52.6C140.01 52.28 140.205 52.005 140.415 51.775C140.625 51.545 140.865 51.43 141.135 51.43C141.275 51.43 141.39 51.455 141.48 51.505C141.57 51.545 141.62 51.62 141.63 51.73C141.64 51.83 141.595 51.97 141.495 52.15C141.245 52.55 141.015 52.995 140.805 53.485C140.595 53.965 140.425 54.47 140.295 55C140.175 55.52 140.11 56.05 140.1 56.59C140.1 57.23 140.22 57.795 140.46 58.285C140.7 58.765 141.04 59.14 141.48 59.41C141.93 59.68 142.445 59.815 143.025 59.815C143.545 59.815 143.97 59.785 144.3 59.725C144.64 59.665 144.91 59.595 145.11 59.515C145.31 59.425 145.475 59.355 145.605 59.305C145.735 59.245 145.85 59.215 145.95 59.215C146.12 59.215 146.24 59.265 146.31 59.365C146.39 59.455 146.43 59.575 146.43 59.725C146.43 59.945 146.305 60.16 146.055 60.37C145.815 60.58 145.445 60.755 144.945 60.895C144.455 61.035 143.83 61.105 143.07 61.105ZM140.19 56.905C139.98 56.955 139.81 56.955 139.68 56.905C139.56 56.845 139.47 56.76 139.41 56.65C139.36 56.53 139.335 56.41 139.335 56.29C139.335 56.12 139.42 55.97 139.59 55.84C139.77 55.7 140.02 55.605 140.34 55.555C140.66 55.495 141 55.44 141.36 55.39C141.73 55.34 142.1 55.295 142.47 55.255C142.85 55.215 143.21 55.18 143.55 55.15C143.9 55.12 144.21 55.105 144.48 55.105C144.79 55.105 145 55.15 145.11 55.24C145.23 55.33 145.29 55.45 145.29 55.6C145.29 55.87 145.175 56.065 144.945 56.185C144.715 56.295 144.44 56.36 144.12 56.38C143.66 56.41 143.185 56.455 142.695 56.515C142.215 56.565 141.755 56.625 141.315 56.695C140.885 56.765 140.51 56.835 140.19 56.905ZM139.785 52.09C139.505 52.09 139.29 52.03 139.14 51.91C139 51.79 138.93 51.645 138.93 51.475C138.93 51.365 138.965 51.255 139.035 51.145C139.105 51.035 139.23 50.955 139.41 50.905C140.05 50.785 140.745 50.685 141.495 50.605C142.255 50.525 142.995 50.465 143.715 50.425C144.445 50.385 145.08 50.365 145.62 50.365C145.89 50.365 146.09 50.42 146.22 50.53C146.35 50.63 146.415 50.77 146.415 50.95C146.415 51.15 146.355 51.32 146.235 51.46C146.115 51.59 145.92 51.655 145.65 51.655C144.78 51.655 144.03 51.675 143.4 51.715C142.78 51.755 142.245 51.805 141.795 51.865C141.355 51.925 140.97 51.98 140.64 52.03C140.32 52.07 140.035 52.09 139.785 52.09ZM148.908 61.195C148.628 61.195 148.418 61.035 148.278 60.715C148.138 60.395 148.068 59.94 148.068 59.35C148.068 58.83 148.128 58.24 148.248 57.58C148.378 56.92 148.573 56.165 148.833 55.315C148.813 54.985 148.778 54.68 148.728 54.4C148.688 54.11 148.623 53.805 148.533 53.485C148.453 53.165 148.338 52.8 148.188 52.39C148.058 52.06 148.023 51.81 148.083 51.64C148.153 51.47 148.323 51.385 148.593 51.385C148.913 51.385 149.188 51.575 149.418 51.955C149.658 52.335 149.823 52.98 149.913 53.89L149.538 53.98C149.918 53.14 150.348 52.455 150.828 51.925C151.318 51.385 151.848 50.99 152.418 50.74C152.988 50.48 153.583 50.35 154.203 50.35C154.633 50.35 155.008 50.415 155.328 50.545C155.648 50.675 155.908 50.855 156.108 51.085C156.308 51.305 156.453 51.565 156.543 51.865C156.643 52.165 156.693 52.49 156.693 52.84C156.693 53.23 156.613 53.625 156.453 54.025C156.293 54.425 156.018 54.83 155.628 55.24C155.248 55.64 154.728 56.035 154.068 56.425C153.408 56.805 152.578 57.17 151.578 57.52C152.058 57.92 152.688 58.33 153.468 58.75C154.258 59.17 155.133 59.535 156.093 59.845C156.463 59.955 156.708 60.065 156.828 60.175C156.948 60.285 157.008 60.405 157.008 60.535C157.008 60.745 156.938 60.905 156.798 61.015C156.658 61.125 156.438 61.18 156.138 61.18C155.908 61.18 155.588 61.115 155.178 60.985C154.768 60.855 154.318 60.68 153.828 60.46C153.348 60.24 152.863 59.99 152.373 59.71C151.893 59.42 151.448 59.12 151.038 58.81C150.638 58.5 150.318 58.19 150.078 57.88C149.968 57.72 149.908 57.56 149.898 57.4C149.888 57.24 149.933 57.095 150.033 56.965C150.133 56.835 150.288 56.735 150.498 56.665C151.418 56.355 152.188 56.035 152.808 55.705C153.428 55.375 153.923 55.045 154.293 54.715C154.663 54.385 154.928 54.065 155.088 53.755C155.248 53.445 155.328 53.15 155.328 52.87C155.328 52.53 155.228 52.24 155.028 52C154.838 51.76 154.513 51.64 154.053 51.64C153.633 51.64 153.228 51.74 152.838 51.94C152.448 52.14 152.078 52.425 151.728 52.795C151.388 53.165 151.078 53.605 150.798 54.115C150.518 54.625 150.273 55.195 150.063 55.825C149.863 56.445 149.703 57.105 149.583 57.805C149.473 58.505 149.418 59.235 149.418 59.995C149.418 60.325 149.403 60.58 149.373 60.76C149.343 60.93 149.293 61.045 149.223 61.105C149.153 61.165 149.048 61.195 148.908 61.195Z" fill="black"/>
<path d="M182.147 60.3287C182.182 60.4181 182.188 60.515 182.166 60.6079C182.144 60.7007 182.095 60.7858 182.023 60.8531L180.422 62.3531C180.372 62.3996 180.313 62.4366 180.248 62.4618C180.184 62.487 180.114 62.5 180.044 62.5C180.026 62.5009 180.009 62.5009 179.991 62.5C179.913 62.4927 179.837 62.4692 179.769 62.4312C179.701 62.3932 179.643 62.3415 179.6 62.28L176.659 58.1475L175.24 59.4744V61C175.24 61.1324 175.184 61.2594 175.084 61.3531C175.084 61.3531 174.15 62.2319 174.025 62.3456C173.973 62.3968 173.909 62.4368 173.839 62.4631C173.709 62.513 173.562 62.5123 173.432 62.4614C173.302 62.4104 173.199 62.3133 173.145 62.1912L173.141 62.1819L172.16 59.8844L169.703 58.9637C169.621 58.933 169.548 58.8837 169.492 58.8203C169.435 58.7568 169.396 58.6812 169.378 58.6002C169.36 58.5192 169.364 58.4353 169.39 58.3561C169.415 58.2769 169.461 58.2048 169.523 58.1462L170.591 57.1462C170.641 57.0996 170.7 57.0627 170.765 57.0376C170.83 57.0125 170.9 56.9997 170.97 57H172.598L174.017 55.6706L169.607 52.9156C169.541 52.8746 169.486 52.8204 169.445 52.7569C169.404 52.6935 169.379 52.6223 169.371 52.5487C169.364 52.475 169.373 52.4006 169.4 52.3309C169.427 52.2612 169.469 52.1979 169.525 52.1456L171.126 50.6456C171.198 50.5783 171.289 50.5317 171.388 50.5111C171.487 50.4905 171.591 50.4968 171.686 50.5294L177.42 52.4825L179.524 50.5119C179.874 50.1837 180.349 49.9993 180.845 49.9993C181.09 49.9993 181.333 50.0445 181.559 50.1325C181.786 50.2204 181.992 50.3493 182.166 50.5119C182.339 50.6744 182.477 50.8673 182.57 51.0796C182.664 51.292 182.713 51.5195 182.713 51.7494C182.713 51.9792 182.664 52.2068 182.57 52.4191C182.477 52.6314 182.339 52.8243 182.166 52.9869L180.062 54.9575L182.147 60.3287Z" fill="black"/>
</svg>
