<svg width="214" height="64" viewBox="0 0 214 64" fill="none" xmlns="http://www.w3.org/2000/svg">
<line y1="27.7526" x2="193.906" y2="27.7526" stroke="black" stroke-width="1.5"/>
<line x1="20.0937" y1="40.7526" x2="214" y2="40.7526" stroke="black" stroke-width="1.5"/>
<line x1="106.5" y1="27" x2="106.5" y2="41" stroke="black"/>
<path d="M48.4131 19V17.5586L49.3359 17.4268L53.4932 6.20312H55.875L59.9971 17.4268L60.9111 17.5586V19H56.7012V17.5586L57.6064 17.3916L56.9824 15.5107H52.3506L51.7266 17.3916L52.623 17.5586V19H48.4131ZM52.9395 13.709H56.3936L54.8203 9.15625L54.6973 8.78711H54.6445L54.5127 9.17383L52.9395 13.709ZM62.0404 19V17.5586L63.429 17.2686V7.94336L62.0404 7.65332V6.20312H63.429H67.5335C68.6761 6.20312 69.678 6.47266 70.5394 7.01172C71.4066 7.55078 72.0833 8.29199 72.5696 9.23535C73.056 10.1787 73.2991 11.2627 73.2991 12.4873V12.7246C73.2991 13.9316 73.0589 15.0098 72.5784 15.959C72.1038 16.9023 71.4359 17.6465 70.5745 18.1914C69.7191 18.7305 68.72 19 67.5775 19H62.0404ZM65.8196 17.1631H67.4544C68.1868 17.1631 68.8079 16.9697 69.3177 16.583C69.8275 16.1963 70.2171 15.6689 70.4866 15.001C70.762 14.333 70.8997 13.5742 70.8997 12.7246V12.4697C70.8997 11.6084 70.762 10.8467 70.4866 10.1846C70.2171 9.5166 69.8275 8.99512 69.3177 8.62012C68.8079 8.23926 68.1868 8.04883 67.4544 8.04883H65.8196V17.1631ZM79.4557 19L75.2985 7.79395L74.1911 7.65332V6.20312H79.0602V7.65332L77.9 7.83789L80.484 15.5107L80.7038 16.2754H80.7565L80.9762 15.5283L83.5778 7.8291L82.2418 7.65332V6.20312H86.9264V7.65332L85.7926 7.79395L81.8463 19H79.4557ZM87.9941 19V17.5586L89.374 17.2949V7.91699L87.9941 7.65332V6.20312H97.8291V9.57812H95.9834L95.8515 8.04004H91.7646V11.459H96.1767V13.3135H91.7646V17.1719H96.08L96.2119 15.5986H98.04V19H87.9941ZM99.679 19V17.5586L101.05 17.2949V7.91699L99.679 7.65332V6.20312H101.05H103.476L109.198 15.3086L109.25 15.2998V7.91699L107.624 7.65332V6.20312H111.395H112.775V7.65332L111.395 7.91699V19H109.101L103.256 9.95605L103.203 9.96484V17.2949L104.829 17.5586V19H99.679ZM116.927 19V17.5586L118.307 17.2949V8.04004H115.855L115.688 9.62207H113.886V6.20312H125.136V9.62207H123.326L123.159 8.04004H120.698V17.2949L122.087 17.5586V19H116.927ZM132.611 19.1846C131.621 19.1846 130.748 19.0117 129.992 18.666C129.242 18.3145 128.656 17.8076 128.234 17.1455C127.812 16.4775 127.601 15.6719 127.601 14.7285V7.91699L126.23 7.65332V6.20312H131.372V7.65332L129.992 7.91699V14.7285C129.992 15.3086 130.098 15.792 130.309 16.1787C130.525 16.5654 130.83 16.8555 131.223 17.0488C131.615 17.2422 132.078 17.3389 132.611 17.3389C133.156 17.3389 133.628 17.2451 134.026 17.0576C134.425 16.8643 134.729 16.5742 134.94 16.1875C135.157 15.8008 135.266 15.3145 135.266 14.7285V7.91699L133.886 7.65332V6.20312H139.036V7.65332L137.656 7.91699V14.7285C137.656 15.6777 137.445 16.4863 137.023 17.1543C136.601 17.8164 136.013 18.3203 135.257 18.666C134.501 19.0117 133.619 19.1846 132.611 19.1846ZM140.148 19V17.5586L141.528 17.2949V7.91699L140.148 7.65332V6.20312H146.142C147.109 6.20312 147.938 6.35254 148.629 6.65137C149.326 6.9502 149.857 7.38086 150.22 7.94336C150.589 8.50586 150.774 9.17969 150.774 9.96484C150.774 10.7148 150.592 11.377 150.229 11.9512C149.865 12.5254 149.356 12.9766 148.699 13.3047C148.049 13.627 147.293 13.791 146.432 13.7969L143.918 13.8057V17.2949L145.298 17.5586V19H140.148ZM148.427 19L146.124 13.2871L148.322 12.8389L150.29 17.3125L151.336 17.541V19H148.427ZM143.918 11.96H146.063C146.854 11.96 147.44 11.7988 147.821 11.4766C148.201 11.1484 148.392 10.6738 148.392 10.0527C148.392 9.44336 148.204 8.95703 147.829 8.59375C147.454 8.23047 146.892 8.04883 146.142 8.04883H143.918V11.96ZM152.668 19V17.5586L154.047 17.2949V7.91699L152.668 7.65332V6.20312H162.503V9.57812H160.657L160.525 8.04004H156.438V11.459H160.85V13.3135H156.438V17.1719H160.753L160.885 15.5986H162.713V19H152.668Z" fill="black"/>
<path d="M89.4468 62V60.7988L90.5967 60.5791V52.7642L89.4468 52.5444V51.3359H90.5967H94.4858C95.2915 51.3359 95.9824 51.4775 96.5586 51.7607C97.1396 52.0391 97.5864 52.4321 97.8989 52.9399C98.2114 53.4429 98.3677 54.0288 98.3677 54.6978C98.3677 55.3716 98.2114 55.96 97.8989 56.4629C97.5864 56.9609 97.1396 57.3491 96.5586 57.6274C95.9824 57.9058 95.2915 58.0449 94.4858 58.0449H92.5889V60.5791L93.7388 60.7988V62H89.4468ZM92.5889 56.5068H94.4858C95.1108 56.5068 95.582 56.3384 95.8994 56.0015C96.2168 55.6646 96.3755 55.2349 96.3755 54.7124C96.3755 54.1851 96.2168 53.748 95.8994 53.4014C95.582 53.0498 95.1108 52.874 94.4858 52.874H92.5889V56.5068ZM99.2647 62V60.7988L100.415 60.5791V52.7642L99.2647 52.5444V51.3359H100.415H102.407H103.674V52.5444L102.407 52.7642V60.4766H105.578L105.695 58.8872H107.219V62H99.2647ZM108.145 62V60.7988L108.914 60.689L112.379 51.3359H114.363L117.799 60.689L118.56 60.7988V62H115.052V60.7988L115.806 60.6597L115.286 59.0923H111.426L110.906 60.6597L111.654 60.7988V62H108.145ZM111.917 57.5908H114.796L113.485 53.7969L113.382 53.4893H113.338L113.228 53.8115L111.917 57.5908ZM119.509 62V60.7988L120.651 60.5791V52.7642L119.509 52.5444V51.3359H120.651H122.673L127.441 58.9238L127.485 58.9165V52.7642L126.13 52.5444V51.3359H129.272H130.422V52.5444L129.272 52.7642V62H127.36L122.49 54.4634L122.446 54.4707V60.5791L123.801 60.7988V62H119.509ZM131.392 62V60.7988L132.535 60.5791V52.7642L131.392 52.5444V51.3359H132.535H134.556L139.324 58.9238L139.368 58.9165V52.7642L138.013 52.5444V51.3359H141.155H142.305V52.5444L141.155 52.7642V62H139.244L134.373 54.4634L134.329 54.4707V60.5791L135.684 60.7988V62H131.392ZM143.268 62V60.7988L144.418 60.5791V52.7642L143.268 52.5444V51.3359H151.464V54.1484H149.926L149.816 52.8667H146.41V55.7158H150.087V57.2612H146.41V60.4766H150.006L150.116 59.1655H151.64V62H143.268ZM152.998 62V60.7988L154.148 60.5791V52.7642L152.998 52.5444V51.3359H157.993C158.799 51.3359 159.49 51.4604 160.066 51.7095C160.647 51.9585 161.089 52.3174 161.392 52.7861C161.699 53.2549 161.853 53.8164 161.853 54.4707C161.853 55.0957 161.702 55.6475 161.399 56.126C161.096 56.6045 160.671 56.9805 160.125 57.2539C159.583 57.5225 158.953 57.6592 158.235 57.6641L156.14 57.6714V60.5791L157.29 60.7988V62H152.998ZM159.898 62L157.979 57.2393L159.81 56.8657L161.45 60.5938L162.322 60.7842V62H159.898ZM156.14 56.1333H157.927C158.587 56.1333 159.075 55.999 159.392 55.7305C159.71 55.457 159.868 55.0615 159.868 54.5439C159.868 54.0361 159.712 53.6309 159.4 53.3281C159.087 53.0254 158.618 52.874 157.993 52.874H156.14V56.1333Z" fill="black"/>
<path d="M184.147 60.3287C184.182 60.4182 184.188 60.515 184.166 60.6079C184.144 60.7008 184.095 60.7858 184.023 60.8531L182.422 62.3531C182.372 62.3997 182.313 62.4366 182.248 62.4618C182.184 62.487 182.114 62.5 182.044 62.5C182.026 62.5009 182.009 62.5009 181.991 62.5C181.913 62.4927 181.837 62.4693 181.769 62.4312C181.701 62.3932 181.643 62.3415 181.6 62.28L178.659 58.1475L177.24 59.4744V61C177.24 61.1324 177.184 61.2594 177.084 61.3531C177.084 61.3531 176.15 62.2319 176.025 62.3456C175.973 62.3968 175.909 62.4368 175.839 62.4631C175.709 62.513 175.562 62.5123 175.432 62.4614C175.302 62.4105 175.199 62.3133 175.145 62.1912L175.141 62.1819L174.16 59.8844L171.703 58.9637C171.621 58.933 171.548 58.8837 171.492 58.8203C171.435 58.7569 171.396 58.6812 171.378 58.6002C171.36 58.5192 171.364 58.4353 171.39 58.3561C171.415 58.2769 171.461 58.2048 171.523 58.1462L172.591 57.1462C172.641 57.0996 172.7 57.0627 172.765 57.0376C172.83 57.0125 172.9 56.9997 172.97 57H174.598L176.017 55.6706L171.607 52.9156C171.541 52.8746 171.486 52.8204 171.445 52.7569C171.404 52.6935 171.379 52.6224 171.371 52.5487C171.364 52.475 171.373 52.4006 171.4 52.3309C171.427 52.2612 171.469 52.1979 171.525 52.1456L173.126 50.6456C173.198 50.5784 173.289 50.5317 173.388 50.5111C173.487 50.4905 173.591 50.4969 173.686 50.5294L179.42 52.4825L181.524 50.5119C181.874 50.1837 182.349 49.9993 182.845 49.9993C183.09 49.9993 183.333 50.0446 183.559 50.1325C183.786 50.2205 183.992 50.3494 184.166 50.5119C184.339 50.6744 184.477 50.8673 184.57 51.0796C184.664 51.292 184.713 51.5195 184.713 51.7494C184.713 51.9792 184.664 52.2068 184.57 52.4191C184.477 52.6314 184.339 52.8244 184.166 52.9869L182.062 54.9575L184.147 60.3287Z" fill="black"/>
</svg>
