<?xml version="1.0" encoding="UTF-8" standalone="no"?>
<svg
   xmlns:dc="http://purl.org/dc/elements/1.1/"
   xmlns:cc="http://creativecommons.org/ns#"
   xmlns:rdf="http://www.w3.org/1999/02/22-rdf-syntax-ns#"
   xmlns:svg="http://www.w3.org/2000/svg"
   xmlns="http://www.w3.org/2000/svg"
   viewBox="0 0 566.93335 453.54666"
   height="453.54666"
   width="566.93335"
   xml:space="preserve"
   id="svg2"
   version="1.1"><metadata
     id="metadata8"><rdf:RDF><cc:Work
         rdf:about=""><dc:format>image/svg+xml</dc:format><dc:type
           rdf:resource="http://purl.org/dc/dcmitype/StillImage" /></cc:Work></rdf:RDF></metadata><defs
     id="defs6" /><g
     transform="matrix(1.3333333,0,0,-1.3333333,0,453.54667)"
     id="g10"><g
       transform="scale(0.1)"
       id="g12"><path
         id="path14"
         style="fill:#4f4e6d;fill-opacity:1;fill-rule:nonzero;stroke:none"
         d="m 3163.44,1549.92 c -8.02,-1.75 -16.22,-3.53 -24.4,-5.3 -4.54,-0.98 -9.01,-1.96 -13.6,-2.95 -7.98,-1.72 -16.11,-3.45 -24.24,-5.19 -5.01,-1.07 -9.98,-2.14 -15.04,-3.21 -8.03,-1.71 -16.18,-3.43 -24.35,-5.15 -5.32,-1.13 -10.63,-2.25 -16.01,-3.37 -8.25,-1.73 -16.58,-3.47 -24.97,-5.21 -5.47,-1.14 -10.96,-2.28 -16.49,-3.42 -8.43,-1.74 -16.91,-3.49 -25.47,-5.24 -5.66,-1.16 -11.36,-2.32 -17.07,-3.48 -8.67,-1.76 -17.38,-3.53 -26.18,-5.3 -5.71,-1.15 -11.48,-2.3 -17.25,-3.46 -8.95,-1.79 -17.91,-3.58 -26.99,-5.38 -5.65,-1.12 -11.38,-2.25 -17.07,-3.37 -9.41,-1.85 -18.81,-3.7 -28.34,-5.56 -5.05,-0.98 -10.19,-1.97 -15.28,-2.96 -10.33,-2 -20.65,-4 -31.12,-6 -1.42,-0.27 -2.88,-0.55 -4.3,-0.82 -39.21,-7.49 -79.44,-15 -120.51,-22.47 -5.27,-0.96 -10.5,-1.92 -15.8,-2.88 -10.26,-1.86 -20.63,-3.71 -31,-5.56 -6.21,-1.11 -12.39,-2.22 -18.64,-3.32 -10.27,-1.82 -20.63,-3.64 -31.01,-5.45 -4.34,-0.76 -8.61,-1.52 -12.97,-2.28 l 325.82,-162.19 c 9.78,10.52 22.21,20.62 38.11,29.82 l 303.7,134.07 0.01,-0.02 c 16.26,11.4 34.94,17.92 54.82,17.92 62.81,0 113.72,-64.7 113.72,-144.51 0,-63.66 -32.45,-117.6 -77.45,-136.86 l 0.2,-0.58 -125.92,-52.75 114.53,-57.01 57.8,29.13 c 15,7.56 33.46,1.47 41.01,-13.53 7.56,-15 1.48,-33.45 -13.52,-41.01 l -17.02,-8.58 187.14,-93.15 c 1.03,0.691 2.02,1.441 3.16,2.019 l 71.97,36.27 c 15,7.562 33.45,1.473 41.01,-13.527 7.56,-15 1.48,-33.454 -13.52,-41.012 l -34.78,-17.531 226.65,-112.809 c 0.06,0.031 0.11,0.082 0.17,0.109 l 71.97,36.27 c 15,7.551 33.45,1.473 41.01,-13.527 7.56,-15 1.47,-33.461 -13.53,-41.012 l -31.37,-15.82 194.16,-96.649 c 4.67,91.328 -28.52,161.617 -28.52,161.617 l -884.83,742.852 c -12.47,-2.77 -25.18,-5.58 -38.11,-8.41 -3.45,-0.76 -6.81,-1.5 -10.29,-2.26" /><path
         id="path16"
         style="fill:#4f4e6d;fill-opacity:1;fill-rule:nonzero;stroke:none"
         d="m 1432.07,1290.95 c -11.17,-0.77 -22.34,-1.48 -33.51,-2.21 -8.61,-0.55 -17.21,-1.12 -25.82,-1.65 -10.97,-0.67 -21.95,-1.3 -32.93,-1.94 -8.8,-0.5 -17.61,-1.01 -26.42,-1.48 -10.9,-0.59 -21.8,-1.15 -32.69,-1.7 -8.86,-0.44 -17.72,-0.87 -26.58,-1.28 -10.87,-0.51 -21.74,-1 -32.6,-1.45 -8.9,-0.38 -17.78,-0.73 -26.67,-1.08 -10.8,-0.42 -21.6,-0.82 -32.39,-1.19 -3.09,-0.11 -6.17,-0.24 -9.25,-0.34 0.06,0.02 0.12,0.03 0.19,0.05 -51.6,-1.7 -103.08,-2.87 -154.334,-3.41 l 688.814,-134.13 c -2.81,43.84 -22.52,75.57 -22.52,75.57 l -195.95,78.9 c -4.25,-0.31 -8.5,-0.61 -12.76,-0.91 -8.19,-0.59 -16.38,-1.19 -24.58,-1.75" /><path
         id="path18"
         style="fill:#b6bed4;fill-opacity:1;fill-rule:nonzero;stroke:none"
         d="m 3672.24,2205.49 c -2.38,7.69 -5.17,15.02 -8.16,22.17 -102.37,-16.96 -197.03,-26.64 -250.67,-31.33 -20.59,-1.8 -35.49,19.19 -27.01,38.04 l 23.28,51.72 c 3.09,6.85 8.9,12.15 16.02,14.54 56.32,18.91 105.81,32.33 147.68,41.9 -34.5,28.48 -73.24,53.16 -110.39,78.91 -46.69,5.2 -73.21,5.35 -73.21,5.35 -193.32,17.57 -328.05,-46.87 -328.05,-46.87 l -802.98,-267.5 338.3,-153.55 -609.25,-187.46 -217.04,150.7 -68.09,-28.53 c 0,0 -44.51,-12.77 -89.4,3.8 L 753.605,1611 c -8.679,-2.73 -16.886,-5.51 -24.882,-8.31 l 386.187,-97.59 -476.187,-87.27 -100.239,46.19 c -1.421,-4.81 -1.632,-7.55 -1.632,-7.55 -128.879,-224.75 269.48,-182.25 269.48,-182.25 63.742,-1.36 128.066,-1.62 192.734,-0.95 51.254,0.54 102.734,1.71 154.334,3.41 294.4,83.58 589.38,165.11 884.62,245.66 279.72,76.32 565.27,129.37 845.45,203.99 141.23,37.61 281.26,80.25 417.81,132.51 95.87,36.69 197.36,74.9 280.4,136.67 67.58,50.25 117.33,123.23 90.56,209.98" /><path
         id="path20"
         style="fill:#99b1cb;fill-opacity:1;fill-rule:nonzero;stroke:none"
         d="m 3729.26,2366.14 c -0.16,0.04 -0.31,0.09 -0.46,0.13 -6.66,1.97 -13.23,3.88 -19.74,5.72 -1.93,0.55 -3.87,1.11 -5.78,1.64 -7.97,2.23 -15.83,4.37 -23.57,6.41 -1.4,0.37 -2.77,0.72 -4.17,1.08 -6.48,1.7 -12.88,3.33 -19.19,4.9 -2.06,0.52 -4.12,1.03 -6.17,1.53 -7.4,1.81 -14.73,3.57 -21.89,5.22 -0.21,0.05 -0.41,0.1 -0.62,0.14 -7.04,1.62 -13.91,3.14 -20.69,4.61 -1.93,0.42 -3.84,0.83 -5.75,1.23 -5.66,1.21 -11.23,2.36 -16.71,3.46 -1.28,0.26 -2.6,0.54 -3.87,0.79 -6.45,1.29 -12.75,2.49 -18.93,3.64 -1.73,0.32 -3.42,0.62 -5.14,0.93 -4.78,0.88 -9.48,1.71 -14.08,2.51 -1.63,0.28 -3.28,0.56 -4.88,0.84 -5.72,0.96 -11.31,1.88 -16.74,2.73 -1.36,0.21 -2.66,0.4 -4,0.61 -4.27,0.66 -8.44,1.28 -12.52,1.87 -1.68,0.25 -3.36,0.49 -5.01,0.72 -4.56,0.64 -9.02,1.25 -13.32,1.81 -1.17,0.15 -2.31,0.3 -3.46,0.45 -3.98,0.5 -7.84,0.98 -11.59,1.42 -1.64,0.2 -3.26,0.38 -4.86,0.56 -1.04,0.12 -2.14,0.26 -3.16,0.37 0.01,-0.01 0.02,-0.01 0.03,-0.02 37.15,-25.75 75.89,-50.43 110.39,-78.91 98.71,22.57 154.71,23.59 155.88,23.61" /><path
         id="path22"
         style="fill:#99b1cb;fill-opacity:1;fill-rule:nonzero;stroke:none"
         d="m 2609.32,1440.32 c 6.25,1.1 12.43,2.21 18.64,3.32 10.37,1.85 20.74,3.7 31,5.56 5.3,0.96 10.53,1.92 15.8,2.88 41.07,7.47 81.3,14.98 120.51,22.47 1.42,0.27 2.88,0.55 4.3,0.82 10.47,2 20.79,4 31.12,6 5.09,0.99 10.23,1.98 15.28,2.96 9.53,1.86 18.93,3.71 28.34,5.56 5.69,1.12 11.42,2.25 17.07,3.37 9.08,1.8 18.04,3.59 26.99,5.38 5.77,1.16 11.54,2.31 17.25,3.46 8.8,1.77 17.51,3.54 26.18,5.3 5.71,1.16 11.41,2.32 17.07,3.48 8.55,1.75 17.04,3.5 25.47,5.24 5.53,1.14 11.02,2.28 16.49,3.42 8.38,1.74 16.72,3.48 24.97,5.21 5.38,1.12 10.69,2.24 16.01,3.37 8.17,1.72 16.32,3.44 24.35,5.15 5.06,1.07 10.03,2.14 15.04,3.21 8.13,1.73 16.26,3.47 24.24,5.19 4.59,0.99 9.06,1.97 13.6,2.95 8.18,1.77 16.38,3.55 24.4,5.3 3.48,0.76 6.84,1.5 10.29,2.26 29.07,6.37 57,12.59 83.72,18.62 3.43,0.78 6.95,1.57 10.34,2.34 7.07,1.6 13.95,3.17 20.85,4.75 4.13,0.94 8.32,1.89 12.4,2.83 6.44,1.48 12.73,2.93 19.01,4.38 4.31,0.99 8.62,1.99 12.84,2.96 5.89,1.37 11.65,2.71 17.39,4.05 4.44,1.04 8.87,2.07 13.22,3.09 5.45,1.28 10.82,2.54 16.12,3.8 4.29,1.01 8.53,2.01 12.72,3 5.26,1.25 10.46,2.49 15.56,3.7 3.9,0.93 7.71,1.84 11.51,2.75 5.03,1.21 10.05,2.41 14.92,3.58 3.84,0.93 7.55,1.82 11.29,2.73 4.65,1.12 9.31,2.25 13.8,3.34 3.35,0.81 6.55,1.6 9.81,2.39 4.61,1.13 9.26,2.27 13.69,3.35 3.31,0.81 6.42,1.58 9.63,2.37 4,0.99 8.1,2 11.94,2.95 2.63,0.65 5.05,1.26 7.6,1.89 8.11,2.02 15.83,3.95 23.15,5.79 2.47,0.62 5.05,1.26 7.43,1.86 3.16,0.8 6.09,1.55 9.1,2.31 2.68,0.68 5.42,1.37 7.97,2.02 2.8,0.71 5.41,1.38 8.05,2.05 2.45,0.63 4.91,1.26 7.22,1.85 2.38,0.61 4.6,1.18 6.82,1.75 2.38,0.61 4.7,1.21 6.9,1.78 1.98,0.52 3.88,1.01 5.73,1.49 2.01,0.52 3.94,1.02 5.79,1.5 1.69,0.44 3.33,0.87 4.88,1.28 1.89,0.49 3.62,0.95 5.3,1.39 1.16,0.3 2.35,0.62 3.42,0.9 1.69,0.44 3.16,0.83 4.59,1.21 0.8,0.21 1.68,0.44 2.39,0.63 1.15,0.31 2.08,0.56 3.01,0.81 0.77,0.2 1.66,0.44 2.28,0.6 2.53,0.68 3.85,1.04 3.85,1.04 410.07,124.96 509.66,364.66 509.66,364.66 76.16,143.06 -93.73,212.73 -93.73,212.73 -10.15,5.22 -20.22,10.25 -30.25,15.18 -2.69,1.33 -5.38,2.63 -8.06,3.94 -8.4,4.07 -16.75,8.06 -25.05,11.94 -1.73,0.81 -3.47,1.65 -5.19,2.45 -9.77,4.53 -19.46,8.91 -29.1,13.18 -2.39,1.06 -4.77,2.09 -7.15,3.14 -2.73,1.19 -5.46,2.4 -8.17,3.57 -79.98,-28.37 -177.49,-49.3 -268.85,-64.44 2.99,-7.15 5.78,-14.48 8.16,-22.17 26.77,-86.75 -22.98,-159.73 -90.56,-209.98 -83.04,-61.77 -184.53,-99.98 -280.4,-136.67 -136.55,-52.26 -276.58,-94.9 -417.81,-132.51 -280.18,-74.62 -565.73,-127.67 -845.45,-203.99 -295.24,-80.55 -590.22,-162.08 -884.62,-245.66 -0.07,-0.02 -0.13,-0.03 -0.19,-0.05 3.08,0.1 6.16,0.23 9.25,0.34 10.79,0.37 21.59,0.78 32.39,1.19 8.89,0.35 17.77,0.7 26.67,1.08 10.86,0.45 21.73,0.94 32.6,1.45 8.86,0.41 17.72,0.84 26.58,1.28 10.89,0.55 21.79,1.11 32.69,1.7 8.81,0.47 17.62,0.98 26.42,1.48 10.98,0.63 21.96,1.27 32.93,1.94 8.61,0.53 17.21,1.1 25.82,1.65 11.17,0.73 22.34,1.44 33.51,2.21 8.2,0.56 16.39,1.16 24.58,1.75 11.58,0.83 23.16,1.64 34.73,2.51 6.57,0.5 13.12,1.04 19.69,1.55 44.25,3.44 88.42,7.2 132.43,11.26 6.97,0.64 13.95,1.26 20.92,1.92 11.77,1.11 23.51,2.27 35.26,3.42 7.79,0.76 15.59,1.51 23.37,2.3 11.43,1.14 22.83,2.33 34.22,3.51 8.04,0.84 16.09,1.67 24.12,2.52 11.25,1.2 22.47,2.42 33.69,3.65 8.12,0.89 16.22,1.78 24.32,2.69 11.16,1.25 22.31,2.52 33.44,3.8 8.05,0.93 16.09,1.86 24.13,2.81 11.19,1.31 22.36,2.64 33.52,3.98 7.81,0.94 15.6,1.9 23.39,2.86 11.28,1.38 22.54,2.77 33.78,4.18 7.6,0.96 15.17,1.93 22.75,2.9 11.38,1.46 22.75,2.91 34.07,4.4 7.08,0.92 14.13,1.87 21.19,2.81 11.74,1.56 23.5,3.12 35.19,4.71 5.77,0.78 11.51,1.59 17.27,2.38 44.68,6.14 88.92,12.48 132.62,18.97 4.04,0.61 8.11,1.2 12.14,1.8 11.91,1.78 23.73,3.59 35.55,5.39 6.32,0.97 12.66,1.92 18.94,2.89 11.21,1.73 22.34,3.48 33.48,5.23 6.73,1.05 13.48,2.1 20.18,3.17 10.89,1.73 21.72,3.46 32.53,5.21 6.84,1.1 13.68,2.2 20.49,3.31 10.68,1.74 21.31,3.48 31.91,5.24 6.8,1.12 13.58,2.24 20.34,3.37 10.5,1.75 20.97,3.51 31.38,5.28 6.75,1.14 13.46,2.28 20.16,3.43 10.41,1.77 20.79,3.56 31.1,5.34 2.12,0.37 4.28,0.73 6.39,1.1 4.36,0.76 8.63,1.52 12.97,2.28 10.37,1.81 20.74,3.63 31.01,5.45" /><path
         id="path24"
         style="fill:#4f4e6d;fill-opacity:1;fill-rule:nonzero;stroke:none"
         d="m 3103.37,2171.62 c 2.31,-16.05 17.33,-27.3 33.38,-24.99 16.06,2.31 27.3,17.34 24.99,33.39 l -4.87,33.82 c -2.31,16.05 -17.33,27.29 -33.38,24.98 -16.06,-2.31 -27.3,-17.33 -24.99,-33.39 l 4.87,-33.81" /><path
         id="path26"
         style="fill:#4f4e6d;fill-opacity:1;fill-rule:nonzero;stroke:none"
         d="m 3001.83,2140.38 c 2.31,-16.06 17.33,-27.3 33.38,-24.99 16.05,2.31 27.3,17.33 24.99,33.39 l -4.87,33.81 c -2.31,16.05 -17.33,27.3 -33.39,24.99 -16.05,-2.31 -27.29,-17.34 -24.98,-33.39 l 4.87,-33.81" /><path
         id="path28"
         style="fill:#4f4e6d;fill-opacity:1;fill-rule:nonzero;stroke:none"
         d="m 2900.28,2109.13 c 2.31,-16.05 17.34,-27.29 33.39,-24.98 16.05,2.31 27.3,17.33 24.99,33.38 l -4.87,33.82 c -2.31,16.05 -17.34,27.29 -33.39,24.98 -16.05,-2.31 -27.29,-17.33 -24.98,-33.38 l 4.86,-33.82" /><path
         id="path30"
         style="fill:#4f4e6d;fill-opacity:1;fill-rule:nonzero;stroke:none"
         d="m 2798.74,2077.89 c 2.31,-16.05 17.34,-27.3 33.39,-24.99 16.05,2.31 27.29,17.34 24.98,33.39 l -4.86,33.81 c -2.31,16.06 -17.34,27.3 -33.39,24.99 -16.05,-2.31 -27.3,-17.33 -24.98,-33.39 l 4.86,-33.81" /><path
         id="path32"
         style="fill:#4f4e6d;fill-opacity:1;fill-rule:nonzero;stroke:none"
         d="m 2697.2,2046.64 c 2.31,-16.05 17.34,-27.29 33.39,-24.98 16.05,2.31 27.29,17.33 24.98,33.39 l -4.86,33.81 c -2.31,16.05 -17.34,27.3 -33.39,24.99 -16.05,-2.31 -27.3,-17.34 -24.99,-33.39 l 4.87,-33.82" /><path
         id="path34"
         style="fill:#4f4e6d;fill-opacity:1;fill-rule:nonzero;stroke:none"
         d="m 2629.05,1990.42 c 16.05,2.31 27.29,17.33 24.98,33.38 l -4.87,33.82 c -2.31,16.05 -17.33,27.29 -33.38,24.98 -16.05,-2.31 -27.3,-17.33 -24.99,-33.38 l 4.87,-33.82 c 2.31,-16.05 17.33,-27.29 33.39,-24.98" /><path
         id="path36"
         style="fill:#4f4e6d;fill-opacity:1;fill-rule:nonzero;stroke:none"
         d="m 1783.33,1765.45 c 2.31,-16.05 17.33,-27.29 33.38,-24.98 16.05,2.31 27.3,17.33 24.99,33.38 l -4.87,33.82 c -2.31,16.05 -17.33,27.29 -33.39,24.98 -16.05,-2.31 -27.29,-17.33 -24.98,-33.38 l 4.87,-33.82" /><path
         id="path38"
         style="fill:#4f4e6d;fill-opacity:1;fill-rule:nonzero;stroke:none"
         d="m 1681.78,1734.21 c 2.31,-16.05 17.34,-27.3 33.39,-24.99 16.05,2.31 27.29,17.34 24.98,33.39 l -4.86,33.81 c -2.31,16.06 -17.34,27.3 -33.39,24.99 -16.05,-2.31 -27.29,-17.33 -24.98,-33.39 l 4.86,-33.81" /><path
         id="path40"
         style="fill:#4f4e6d;fill-opacity:1;fill-rule:nonzero;stroke:none"
         d="m 1580.24,1702.97 c 2.31,-16.06 17.34,-27.3 33.39,-24.99 16.05,2.31 27.3,17.33 24.98,33.39 l -4.86,33.81 c -2.31,16.05 -17.34,27.3 -33.39,24.99 -16.05,-2.31 -27.3,-17.34 -24.98,-33.39 l 4.86,-33.81" /><path
         id="path42"
         style="fill:#4f4e6d;fill-opacity:1;fill-rule:nonzero;stroke:none"
         d="m 1478.7,1671.72 c 2.31,-16.05 17.34,-27.29 33.39,-24.98 16.05,2.31 27.29,17.33 24.98,33.38 l -4.87,33.82 c -2.3,16.05 -17.33,27.29 -33.38,24.98 -16.05,-2.31 -27.3,-17.33 -24.99,-33.38 l 4.87,-33.82" /><path
         id="path44"
         style="fill:#4f4e6d;fill-opacity:1;fill-rule:nonzero;stroke:none"
         d="m 1377.16,1640.48 c 2.31,-16.05 17.33,-27.3 33.39,-24.99 16.05,2.31 27.29,17.34 24.98,33.39 l -4.87,33.81 c -2.31,16.06 -17.33,27.3 -33.38,24.99 -16.05,-2.31 -27.3,-17.33 -24.99,-33.39 l 4.87,-33.81" /><path
         id="path46"
         style="fill:#4f4e6d;fill-opacity:1;fill-rule:nonzero;stroke:none"
         d="m 1275.62,1609.23 c 2.31,-16.05 17.33,-27.29 33.38,-24.98 16.06,2.31 27.3,17.33 24.99,33.39 l -4.87,33.81 c -2.31,16.05 -17.33,27.3 -33.38,24.99 -16.05,-2.31 -27.3,-17.34 -24.99,-33.39 l 4.87,-33.82" /><path
         id="path48"
         style="fill:#4f4e6d;fill-opacity:1;fill-rule:nonzero;stroke:none"
         d="m 1174.07,1577.99 c 2.32,-16.05 17.34,-27.3 33.39,-24.98 16.05,2.31 27.3,17.33 24.99,33.38 l -4.87,33.82 c -2.31,16.05 -17.33,27.29 -33.39,24.98 -16.05,-2.31 -27.29,-17.33 -24.98,-33.38 l 4.86,-33.82" /><path
         id="path50"
         style="fill:#4f4e6d;fill-opacity:1;fill-rule:nonzero;stroke:none"
         d="m 1991.99,2015.47 0.2,-0.58 -221.43,-92.78 217.04,-150.7 609.25,187.46 -338.3,153.55 -196.21,89.06 c 4.38,-15.36 6.89,-31.86 6.89,-49.15 0,-63.67 -32.44,-117.61 -77.44,-136.86" /><path
         id="path52"
         style="fill:#4f4e6d;fill-opacity:1;fill-rule:nonzero;stroke:none"
         d="m 1597.18,2144.86 299.15,132.06 -1027.896,466.56 c -143.789,9.79 -251.496,-20.18 -251.496,-20.18 l 250.082,-173.65 45.406,22.89 c 15,7.55 33.457,1.47 41.015,-13.53 7.559,-15 1.469,-33.46 -13.531,-41.01 l -15.816,-7.98 184.646,-128.22 47.82,24.1 c 15,7.56 33.46,1.48 41.02,-13.52 7.56,-15 1.47,-33.46 -13.53,-41.02 l -18.23,-9.19 182.88,-126.98 45.53,22.94 c 15,7.56 33.46,1.47 41.01,-13.53 7.57,-14.99 1.48,-33.45 -13.52,-41.01 l -15.95,-8.03 132.04,-91.69 c 10.06,21.45 28.18,42.95 59.37,60.99" /><path
         id="path54"
         style="fill:#4f4e6d;fill-opacity:1;fill-rule:nonzero;stroke:none"
         d="m 1114.91,1505.1 -386.187,97.59 -449.422,113.57 c 0,0 -92.867,-8.65 -186.6018,-46.86 l 445.7848,-205.38 100.239,-46.19 476.187,87.27" /><path
         id="path56"
         style="fill:#4f4e6d;fill-opacity:1;fill-rule:nonzero;stroke:none"
         d="m 3573.38,2342.53 c -41.87,-9.57 -91.36,-22.99 -147.68,-41.9 -7.12,-2.39 -12.93,-7.69 -16.02,-14.54 l -23.28,-51.72 c -8.48,-18.85 6.42,-39.84 27.01,-38.04 53.64,4.69 148.3,14.37 250.67,31.33 91.36,15.14 188.87,36.07 268.85,64.44 0.01,0 0.01,0.01 0.02,0.01 -6.85,3.1 -14.88,6.49 -23.67,10.04 -63.95,25.82 -169.7,60.63 -179.18,63.74 -0.06,0.02 -0.16,0.05 -0.21,0.07 -0.34,0.11 -0.56,0.18 -0.56,0.18 0,0 -0.06,0 -0.07,0 v 0 c -1.17,-0.02 -57.17,-1.04 -155.88,-23.61" /><path
         id="path58"
         style="fill:#343145;fill-opacity:1;fill-rule:nonzero;stroke:none"
         d="m 1702.67,1893.58 68.09,28.53 221.43,92.78 -0.2,0.58 c -11.4,-4.88 -23.57,-7.64 -36.27,-7.64 -62.81,0 -113.72,64.69 -113.72,144.5 0,54.54 23.79,101.99 58.9,126.58 l -0.01,0.02 -4.56,-2.01 -299.15,-132.06 c -31.19,-18.04 -49.31,-39.54 -59.37,-60.99 -24.79,-52.85 -0.44,-105.44 -0.44,-105.44 17.4,-47.16 46.73,-70.28 75.9,-81.05 44.89,-16.57 89.4,-3.8 89.4,-3.8" /><path
         id="path60"
         style="fill:#43415b;fill-opacity:1;fill-rule:nonzero;stroke:none"
         d="m 2062.54,2201.48 c -15.85,55.57 -57.63,95.35 -106.82,95.35 -19.89,0 -38.56,-6.52 -54.82,-17.92 -35.11,-24.59 -58.9,-72.04 -58.9,-126.58 0,-79.81 50.91,-144.5 113.72,-144.5 12.7,0 24.87,2.76 36.27,7.64 45,19.25 77.44,73.19 77.44,136.86 0,17.29 -2.51,33.79 -6.89,49.15" /><path
         id="path62"
         style="fill:#343145;fill-opacity:1;fill-rule:nonzero;stroke:none"
         d="m 2016.36,2152.33 c 0,42.56 -27.15,77.06 -60.64,77.06 -33.5,0 -60.65,-34.5 -60.65,-77.06 0,-42.56 27.15,-77.06 60.65,-77.06 33.49,0 60.64,34.5 60.64,77.06" /><path
         id="path64"
         style="fill:#343145;fill-opacity:1;fill-rule:nonzero;stroke:none"
         d="m 3324.07,1170.82 c -11.4,-4.88 -23.57,-7.64 -36.27,-7.64 -62.8,0 -113.72,64.7 -113.72,144.5 0,54.54 23.8,101.99 58.9,126.59 l -0.01,0.02 -303.7,-134.07 c -15.9,-9.2 -28.33,-19.3 -38.11,-29.82 -56.72,-61.01 -21.7,-136.61 -21.7,-136.61 44.19,-119.77 165.3,-84.85 165.3,-84.85 l 163.59,68.55 125.92,52.75 -0.2,0.58" /><path
         id="path66"
         style="fill:#43415b;fill-opacity:1;fill-rule:nonzero;stroke:none"
         d="m 3287.8,1452.19 c -19.88,0 -38.56,-6.52 -54.82,-17.92 -35.1,-24.6 -58.9,-72.05 -58.9,-126.59 0,-79.8 50.92,-144.5 113.72,-144.5 12.7,0 24.87,2.76 36.27,7.64 45,19.26 77.45,73.2 77.45,136.86 0,79.81 -50.91,144.51 -113.72,144.51" /><path
         id="path68"
         style="fill:#343145;fill-opacity:1;fill-rule:nonzero;stroke:none"
         d="m 3287.8,1230.63 c 33.49,0 60.64,34.5 60.64,77.05 0,42.56 -27.15,77.06 -60.64,77.06 -33.49,0 -60.64,-34.5 -60.64,-77.06 0,-42.55 27.15,-77.05 60.64,-77.05" /><path
         id="path70"
         style="fill:#343145;fill-opacity:1;fill-rule:nonzero;stroke:none"
         d="m 953.441,2559.01 c -7.558,15 -26.015,21.08 -41.015,13.53 l -45.406,-22.89 -26.559,-13.38 c -15,-7.56 -21.086,-26.02 -13.527,-41.02 7.558,-14.99 26.011,-21.08 41.011,-13.52 l 56.149,28.29 15.816,7.98 c 15,7.55 21.09,26.01 13.531,41.01" /><path
         id="path72"
         style="fill:#343145;fill-opacity:1;fill-rule:nonzero;stroke:none"
         d="m 1197.58,2392.38 c -7.56,15 -26.02,21.08 -41.02,13.52 l -47.82,-24.1 -24.14,-12.16 c -15,-7.56 -21.09,-26.02 -13.53,-41.02 7.56,-15 26.01,-21.08 41.01,-13.52 l 53.74,27.07 18.23,9.19 c 15,7.56 21.09,26.02 13.53,41.02" /><path
         id="path74"
         style="fill:#343145;fill-opacity:1;fill-rule:nonzero;stroke:none"
         d="m 1435.24,2224.6 c -7.55,15 -26.01,21.09 -41.01,13.53 l -45.53,-22.94 -26.43,-13.33 c -15,-7.56 -21.09,-26.01 -13.53,-41.01 7.56,-15 26.01,-21.09 41.01,-13.53 l 56.02,28.24 15.95,8.03 c 15,7.56 21.09,26.02 13.52,41.01" /><path
         id="path76"
         style="fill:#343145;fill-opacity:1;fill-rule:nonzero;stroke:none"
         d="m 3411.69,1076.08 c -7.55,15 -26.01,21.09 -41.01,13.53 l -57.8,-29.13 -14.17,-7.14 c -14.99,-7.56 -21.08,-26.02 -13.52,-41.01 7.56,-14.998 26.01,-21.092 41.01,-13.529 l 54.95,27.689 17.02,8.58 c 15,7.56 21.08,26.01 13.52,41.01" /><path
         id="path78"
         style="fill:#343145;fill-opacity:1;fill-rule:nonzero;stroke:none"
         d="m 3684.43,958.102 c -7.56,15 -26.01,21.089 -41.01,13.527 l -71.97,-36.27 c -1.14,-0.578 -2.13,-1.328 -3.16,-2.019 -12.58,-8.442 -17.35,-25.141 -10.36,-38.988 7.56,-15 26.01,-21.09 41.01,-13.532 l 37.19,18.739 34.78,17.531 c 15,7.558 21.08,26.012 13.52,41.012" /><path
         id="path80"
         style="fill:#343145;fill-opacity:1;fill-rule:nonzero;stroke:none"
         d="m 3975.93,809.602 c -7.56,15 -26.01,21.078 -41.01,13.527 l -71.97,-36.27 c -0.06,-0.027 -0.11,-0.078 -0.17,-0.109 -14.86,-7.621 -20.88,-25.969 -13.35,-40.91 7.55,-15 26.01,-21.078 41.01,-13.52 l 40.59,20.45 31.37,15.82 c 15,7.551 21.09,26.012 13.53,41.012" /></g></g></svg>