<svg width="18" height="16" viewBox="0 0 18 16" fill="none" xmlns="http://www.w3.org/2000/svg">
<path d="M15.1468 12.3287C15.1815 12.4182 15.1883 12.515 15.1663 12.6079C15.1444 12.7008 15.0945 12.7858 15.0227 12.8531L13.4215 14.3531C13.372 14.3997 13.3131 14.4366 13.2483 14.4618C13.1835 14.487 13.1141 14.5 13.0439 14.5C13.0264 14.5009 13.0088 14.5009 12.9912 14.5C12.9126 14.4927 12.8367 14.4693 12.769 14.4312C12.7013 14.3932 12.6434 14.3415 12.5996 14.28L9.65935 10.1475L8.24027 11.4744V13C8.2402 13.1324 8.18406 13.2594 8.08415 13.3531C8.08415 13.3531 7.15011 14.2319 7.02468 14.3456C6.97254 14.3968 6.90929 14.4368 6.83921 14.4631C6.70859 14.513 6.56221 14.5123 6.43208 14.4614C6.30194 14.4105 6.19861 14.3133 6.14468 14.1912L6.14068 14.1819L5.15994 11.8844L2.70274 10.9637C2.62077 10.933 2.54822 10.8837 2.49157 10.8203C2.43493 10.7569 2.39597 10.6812 2.37819 10.6002C2.36041 10.5192 2.36435 10.4353 2.38967 10.3561C2.41499 10.2769 2.4609 10.2048 2.52327 10.1462L3.59075 9.14625C3.64059 9.09961 3.6998 9.06267 3.76495 9.03757C3.83011 9.01247 3.89992 8.9997 3.97037 9H5.59827L7.01734 7.67062L2.60667 4.91562C2.54088 4.8746 2.48565 4.8204 2.44494 4.75694C2.40424 4.69349 2.37908 4.62235 2.37129 4.54868C2.36351 4.47501 2.37328 4.40064 2.39991 4.33093C2.42654 4.26123 2.46936 4.19794 2.52527 4.14562L4.12649 2.64562C4.19832 2.57836 4.28914 2.5317 4.38829 2.51111C4.48744 2.49052 4.5908 2.49685 4.68624 2.52937L10.4199 4.4825L12.5235 2.51187C12.8739 2.18367 13.349 1.99928 13.8445 1.99928C14.0898 1.99928 14.3328 2.04455 14.5594 2.1325C14.7861 2.22045 14.992 2.34936 15.1655 2.51187C15.339 2.67438 15.4766 2.86731 15.5705 3.07964C15.6644 3.29197 15.7127 3.51955 15.7127 3.74937C15.7127 3.9792 15.6644 4.20677 15.5705 4.4191C15.4766 4.63143 15.339 4.82436 15.1655 4.98687L13.0619 6.9575L15.1468 12.3287Z" fill="black"/>
</svg>
